<svg xmlns="http://www.w3.org/2000/svg" width="49" height="49" viewbox="0 0 49 49" fill="none">
  <path fill="#7392d0"
    d="M4.11 45.472A4.42 4.42 0 0 0 8.195 48.2h19.162a6.947 6.947 0 0 0 6.947-6.947v-20.21a6.947 6.947 0 0 0-6.947-6.948H7.148A6.947 6.947 0 0 0 .2 21.042v12.632h3.79V21.042a3.158 3.158 0 0 1 3.157-3.158h20.21a3.158 3.158 0 0 1 3.159 3.158v20.21a3.158 3.158 0 0 1-3.158 3.158H8.196a.631.631 0 0 1-.449-1.08L20.41 30.668v7.428h3.79v-12a1.895 1.895 0 0 0-1.895-1.895h-12v3.79h7.428L5.069 40.653a4.421 4.421 0 0 0-.96 4.819Z" />
  <path fill="#7392d0"
    d="M34.305 41.253a6.947 6.947 0 0 0 6.948-6.948v-20.21a6.947 6.947 0 0 0-6.948-6.948h-20.21a6.947 6.947 0 0 0-6.948 6.948h3.79a3.158 3.158 0 0 1 3.158-3.158h20.21a3.158 3.158 0 0 1 3.158 3.158v20.21a3.157 3.157 0 0 1-3.158 3.158v3.79Z" />
  <path fill="#7392d0"
    d="M41.253 34.305a6.947 6.947 0 0 0 6.947-6.947V7.148A6.947 6.947 0 0 0 41.253.2h-20.21a6.947 6.947 0 0 0-6.948 6.947h3.79a3.158 3.158 0 0 1 3.157-3.158h20.21a3.158 3.158 0 0 1 3.158 3.158v20.21a3.158 3.158 0 0 1-3.157 3.159v3.79Z" />
</svg>