<svg xmlns="http://www.w3.org/2000/svg">
  <symbol id="urls" viewBox="0 0 49 49">
    <path
      d="M4.11 45.472A4.42 4.42 0 0 0 8.195 48.2h19.162a6.947 6.947 0 0 0 6.947-6.947v-20.21a6.947 6.947 0 0 0-6.947-6.948H7.148A6.947 6.947 0 0 0 .2 21.042v12.632h3.79V21.042a3.158 3.158 0 0 1 3.157-3.158h20.21a3.158 3.158 0 0 1 3.159 3.158v20.21a3.158 3.158 0 0 1-3.158 3.158H8.196a.631.631 0 0 1-.449-1.08L20.41 30.668v7.428h3.79v-12a1.895 1.895 0 0 0-1.895-1.895h-12v3.79h7.428L5.069 40.653a4.421 4.421 0 0 0-.96 4.819Z" />
    <path
      d="M34.305 41.253a6.947 6.947 0 0 0 6.948-6.948v-20.21a6.947 6.947 0 0 0-6.948-6.948h-20.21a6.947 6.947 0 0 0-6.948 6.948h3.79a3.158 3.158 0 0 1 3.158-3.158h20.21a3.158 3.158 0 0 1 3.158 3.158v20.21a3.157 3.157 0 0 1-3.158 3.158v3.79Z" />
    <path
      d="M41.253 34.305a6.947 6.947 0 0 0 6.947-6.947V7.148A6.947 6.947 0 0 0 41.253.2h-20.21a6.947 6.947 0 0 0-6.948 6.947h3.79a3.158 3.158 0 0 1 3.157-3.158h20.21a3.158 3.158 0 0 1 3.158 3.158v20.21a3.158 3.158 0 0 1-3.157 3.159v3.79Z" />
  </symbol>
  <symbol id="history" viewBox="0 0 62 62">
    <path d="M25 15v15.07A7 7 0 0 0 32 37h12v-6H32a1 1 0 0 1-1-.93V15h-6Z" />
    <path d="M31 0A31 31 0 0 0 6 12.7V4H0v19h19v-6h-8.67A25 25 0 1 1 6 31v-1H0v1A31 31 0 1 0 31 0Z" />
  </symbol>
  <symbol id="settings" viewBox="0 0 60 60">
    <path d="M30 40a10 10 0 1 0 0-20 10 10 0 0 0 0 20Zm0-14a4 4 0 1 1 0 8 4 4 0 0 1 0-8Z" />
    <path
      d="M3.73 36.29.86 39.53 3 43.27l2 3.46 2.16 3.75 4.58-.94a8.771 8.771 0 0 1 1.75-.18 7.38 7.38 0 0 1 3.89 1.05c.43.26.87.52 1.31.75a7.7 7.7 0 0 1 3.49 4.41l.11.33 1.39 4.1h12.64l1.48-4.43a7.7 7.7 0 0 1 3.49-4.41c.44-.24.88-.49 1.31-.75a7.38 7.38 0 0 1 3.89-1.05 8.77 8.77 0 0 1 1.75.18l4.58.94L55 46.73l2-3.46 2.16-3.75-2.87-3.24-.23-.28A8.9 8.9 0 0 1 54 30v-.15a8.9 8.9 0 0 1 2.06-6l.21-.24 2.87-3.24L57 16.73l-2-3.46-2.16-3.75-4.58.94a8.77 8.77 0 0 1-1.75.18 7.38 7.38 0 0 1-3.89-1.05c-.43-.26-.87-.52-1.31-.75a7.7 7.7 0 0 1-3.49-4.41l-.11-.33L36.32 0H23.68L22.2 4.43a7.7 7.7 0 0 1-3.49 4.41c-.44.24-.88.49-1.31.75a7.38 7.38 0 0 1-3.89 1.05 8.771 8.771 0 0 1-1.75-.18l-4.58-.94L5 13.27l-2 3.46-2.16 3.75 2.87 3.24.21.24a8.9 8.9 0 0 1 2.06 6v.15a8.9 8.9 0 0 1-2.06 6l-.19.18ZM12 30v-.05a14.83 14.83 0 0 0-3.57-10l-.21-.24 2-3.46.34.07a14.76 14.76 0 0 0 3 .3 13.36 13.36 0 0 0 7-1.95c.32-.2.653-.387 1-.56a13.63 13.63 0 0 0 6.35-7.8L28 6h4l.11.33a13.63 13.63 0 0 0 6.35 7.8c.333.18.667.367 1 .56a13.36 13.36 0 0 0 7 1.95 14.76 14.76 0 0 0 3-.3l.34-.07 2 3.46-.21.24a14.83 14.83 0 0 0-3.57 10v.11a14.82 14.82 0 0 0 3.57 10l.21.24-2 3.46-.34-.07a14.76 14.76 0 0 0-3-.3 13.36 13.36 0 0 0-7 1.95c-.32.2-.653.387-1 .56a13.63 13.63 0 0 0-6.35 7.8L32 54h-4l-.11-.33a13.63 13.63 0 0 0-6.35-7.8c-.333-.18-.667-.367-1-.56a13.36 13.36 0 0 0-7-1.95 14.76 14.76 0 0 0-3 .3l-.34.07-2-3.46.21-.24a14.83 14.83 0 0 0 3.57-10L12 30Z" />
  </symbol>
  <symbol id="github" viewBox="0 0 1024 1024">
    <path stroke="none"
      d="M511.6 76.3C264.3 76.2 64 276.4 64 523.5 64 718.9 189.3 885 363.8 946c23.5 5.9 19.9-10.8 19.9-22.2v-77.5c-135.7 15.9-141.2-73.9-150.3-88.9C215 726 171.5 718 184.5 703c30.9-15.9 62.4 4 98.9 57.9 26.4 39.1 77.9 32.5 104 26 5.7-23.5 17.9-44.5 34.7-60.8-140.6-25.2-199.2-111-199.2-213 0-49.5 16.3-95 48.3-131.7-20.4-60.5 1.9-112.3 4.9-120 58.1-5.2 118.5 41.6 123.2 45.3 33-8.9 70.7-13.6 112.9-13.6 42.4 0 80.2 4.9 113.5 13.9 11.3-8.6 67.3-48.8 121.3-43.9 2.9 7.7 24.7 58.3 5.5 118 32.4 36.8 48.9 82.7 48.9 132.3 0 102.2-59 188.1-200 212.9a127.5 127.5 0 0 1 38.1 91v112.5c.8 9 0 17.9 15 17.9 177.1-59.7 304.6-227 304.6-424.1 0-247.2-200.4-447.3-447.5-447.3z" />
  </symbol>
  <symbol id="reportIssue" viewBox="0 0 24 24">
    <path
      d="M20 2H4c-1.103 0-2 .894-2 1.992v12.016C2 17.106 2.897 18 4 18h3v4l6.351-4H20c1.103 0 2-.894 2-1.992V3.992A1.998 1.998 0 0 0 20 2zm-7 13h-2v-2h2v2zm0-4h-2V5h2v6z" />
  </symbol>
  <symbol id="detailsMarker" viewBox="0 0 24 24">
    <path d="M6.23 20.23 8 22l10-10L8 2 6.23 3.77 14.46 12z" />
  </symbol>
</svg>